<svg width="44" height="43" viewBox="0 0 44 43" fill="none" xmlns="http://www.w3.org/2000/svg">
<path d="M24.5039 16.5938H20.1709V12.2607C20.1709 11.2676 19.3711 10.4678 18.3779 10.4678C17.3848 10.4678 16.585 11.2676 16.585 12.2607V16.5938H12.252C11.2588 16.5938 10.459 17.3936 10.459 18.3867C10.459 19.3799 11.2588 20.1797 12.252 20.1797H16.585V24.5127C16.585 25.5059 17.3848 26.3057 18.3779 26.3057C19.3711 26.3057 20.1709 25.5059 20.1709 24.5127V20.1797H24.5039C25.4971 20.1797 26.2969 19.3799 26.2969 18.3867C26.2969 17.3936 25.4883 16.5938 24.5039 16.5938Z" fill="white"/>
<path d="M18.3867 33.1611C10.2217 33.1611 3.60352 26.5518 3.60352 18.3867C3.60352 10.2217 10.2217 3.6123 18.3867 3.6123C26.5518 3.6123 33.1611 10.2305 33.1611 18.3867C33.1611 26.543 26.543 33.1611 18.3867 33.1611ZM42.5391 40.0166L32.5811 30.0586C35.1914 26.8857 36.7646 22.8164 36.7646 18.3867C36.7646 8.23535 28.5381 0 18.3779 0C8.21777 0 0 8.23535 0 18.3867C0 28.5381 8.22656 36.7734 18.3867 36.7734C22.8164 36.7734 26.877 35.209 30.0498 32.5986L40.0078 42.5566C40.4648 43.0225 41.8623 43.251 42.5479 42.5566C43.2422 41.8535 43.2422 40.7197 42.5391 40.0166Z" fill="white"/>
</svg>
